<?xml version="1.0" encoding="utf-8"?>
<!-- Generator: Adobe Illustrator 23.0.3, SVG Export Plug-In . SVG Version: 6.00 Build 0)  -->
<svg version="1.1" id="Layer_1" xmlns="http://www.w3.org/2000/svg" xmlns:xlink="http://www.w3.org/1999/xlink" x="0px" y="0px"
	 viewBox="0 0 90 90" style="enable-background:new 0 0 90 90;" xml:space="preserve">
<style type="text/css">
	.st0{fill:#292B68;}
	.st1{fill:#F6BC35;}
	.st2{fill:#FFFFFF;}
</style>
<g>
	<g>
		<ellipse transform="matrix(0.9969 -0.0783 0.0783 0.9969 -3.3861 3.6625)" class="st0" cx="45" cy="45" rx="43.63" ry="43.63"/>
	</g>
	<path class="st1" d="M64.66,40.74c-0.13,0.59,1.57-15.07-10.53-20.89l0,17.76l-2.67,0l0-21.44l-6.44,0h-0.03h-6.42l0,21.44h-2.7
		l0-17.76c-13.32,6.42-10.53,20.89-10.53,20.89h-2.92l0,4.13l22.56,0h0.03l22.56,0l0-4.13H64.66z"/>
	<g>
		<path class="st2" d="M67.58,57.14l0-8.41H54.64v0.3l0,1.92c0,5.3-4.34,9.64-9.64,9.64c-5.3,0-9.64-4.34-9.64-9.64v-1.92l0-0.3
			l-12.94,0l0,8.41h5.26l1.69,3.78l-3.55,3.13l6.49,6.9l3.71-3.74l4.02,1.73l0,4.89l9.91,0l0-4.89l4.02-1.73l3.71,3.74l6.49-6.9
			l-3.55-3.13l1.69-3.78H67.58z"/>
		<path class="st2" d="M54.64,49.04v-0.3h-0.01C54.63,48.84,54.64,48.94,54.64,49.04z"/>
		<path class="st2" d="M35.38,48.74h-0.01l0,0.3C35.36,48.94,35.37,48.84,35.38,48.74z"/>
	</g>
</g>
</svg>
